<?xml version="1.0" standalone="no"?><!DOCTYPE svg PUBLIC "-//W3C//DTD SVG 1.1//EN" "http://www.w3.org/Graphics/SVG/1.1/DTD/svg11.dtd"><svg t="1717578438947" class="icon" viewBox="0 0 1024 1024" version="1.1" xmlns="http://www.w3.org/2000/svg" p-id="6968" width="512" height="512" xmlns:xlink="http://www.w3.org/1999/xlink"><path d="M810.666667 56.888889a113.777778 113.777778 0 0 1 113.777777 113.777778v682.666666a113.777778 113.777778 0 0 1-113.777777 113.777778H213.333333a113.777778 113.777778 0 0 1-113.777777-113.777778V170.666667a113.777778 113.777778 0 0 1 113.777777-113.777778h597.333334z m0 45.511111H213.333333A68.266667 68.266667 0 0 0 145.066667 170.666667v682.666666a68.266667 68.266667 0 0 0 68.266666 68.266667h597.333334a68.266667 68.266667 0 0 0 68.266666-68.266667V170.666667a68.266667 68.266667 0 0 0-68.266666-68.266667z" fill="#1677FF" p-id="6969"></path><path d="M340.878222 711.111111a13.198222 13.198222 0 0 1-9.898666-3.982222 13.994667 13.994667 0 0 1-3.868445-10.24V356.124444c0-4.551111 1.194667-8.135111 3.584-10.808888a12.970667 12.970667 0 0 1 10.24-3.982223h28.103111c7.224889 0 12.231111 3.072 15.018667 9.216L511.715556 541.013333l128.853333-190.464c3.185778-6.144 7.964444-9.216 14.392889-9.216h28.16c4.380444 0 7.793778 1.308444 10.183111 3.982223 2.389333 2.673778 3.584 6.257778 3.584 10.808888v340.764445a13.994667 13.994667 0 0 1-3.868445 10.24 13.198222 13.198222 0 0 1-9.898666 3.982222h-27.591111a12.231111 12.231111 0 0 1-9.557334-3.982222 14.677333 14.677333 0 0 1-3.640889-10.24v-244.622222L539.875556 594.602667c-3.982222 8.647111-10.410667 12.970667-19.171556 12.970666h-17.976889c-8.419556 0-14.791111-4.323556-19.171555-12.970666L381.667556 452.266667v244.622222a13.994667 13.994667 0 0 1-3.925334 10.24 13.198222 13.198222 0 0 1-9.898666 3.982222h-26.965334z" fill="#1677FF" p-id="6970"></path></svg>